name D:\school\WTK\thesis\model\3dpredictsim\Results\Batchsim_tmt_linear_v2\Pog_s1_tmt_aCst_d05_k2000_ig24_pas.mot
datacolumns 128
datarows 4
range 0.53608338 0.56824838
endheader
time	pelvis_tilt	pelvis_list	pelvis_rotation	pelvis_tx	pelvis_ty	pelvis_tz	hip_flexion_l	hip_adduction_l	hip_rotation_l	hip_flexion_r	hip_adduction_r	hip_rotation_r	knee_angle_l	knee_angle_r	ankle_angle_l	ankle_angle_r	subtalar_angle_l	subtalar_angle_r	tmt_angle_l	tmt_angle_r	mtp_angle_l	mtp_angle_r	lumbar_extension	lumbar_bending	lumbar_rotation	arm_flex_l	arm_add_l	arm_rot_l	arm_flex_r	arm_add_r	arm_rot_r	elbow_flex_l	elbow_flex_r	pro_sup_l	pro_sup_r	glut_med1_l/activation	glut_med2_l/activation	glut_med3_l/activation	glut_min1_l/activation	glut_min2_l/activation	glut_min3_l/activation	semimem_l/activation	semiten_l/activation	bifemlh_l/activation	bifemsh_l/activation	sar_l/activation	add_long_l/activation	add_brev_l/activation	add_mag1_l/activation	add_mag2_l/activation	add_mag3_l/activation	tfl_l/activation	pect_l/activation	grac_l/activation	glut_max1_l/activation	glut_max2_l/activation	glut_max3_l/activation	iliacus_l/activation	psoas_l/activation	quad_fem_l/activation	gem_l/activation	peri_l/activation	rect_fem_l/activation	vas_med_l/activation	vas_int_l/activation	vas_lat_l/activation	med_gas_l/activation	lat_gas_l/activation	soleus_l/activation	tib_post_l/activation	flex_dig_l/activation	flex_hal_l/activation	tib_ant_l/activation	per_brev_l/activation	per_long_l/activation	per_tert_l/activation	ext_dig_l/activation	ext_hal_l/activation	ercspn_l/activation	intobl_l/activation	extobl_l/activation	glut_med1_r/activation	glut_med2_r/activation	glut_med3_r/activation	glut_min1_r/activation	glut_min2_r/activation	glut_min3_r/activation	semimem_r/activation	semiten_r/activation	bifemlh_r/activation	bifemsh_r/activation	sar_r/activation	add_long_r/activation	add_brev_r/activation	add_mag1_r/activation	add_mag2_r/activation	add_mag3_r/activation	tfl_r/activation	pect_r/activation	grac_r/activation	glut_max1_r/activation	glut_max2_r/activation	glut_max3_r/activation	iliacus_r/activation	psoas_r/activation	quad_fem_r/activation	gem_r/activation	peri_r/activation	rect_fem_r/activation	vas_med_r/activation	vas_int_r/activation	vas_lat_r/activation	med_gas_r/activation	lat_gas_r/activation	soleus_r/activation	tib_post_r/activation	flex_dig_r/activation	flex_hal_r/activation	tib_ant_r/activation	per_brev_r/activation	per_long_r/activation	per_tert_r/activation	ext_dig_r/activation	ext_hal_r/activation	ercspn_r/activation	intobl_r/activation	extobl_r/activation	
          0.53608338	         -2.92047668	         -0.77955801	         -4.87865481	          0.67010422	          0.87234773	          0.00211292	         26.07416193	         -0.17605580	         -3.23102113	        -18.09791777	          1.18962269	          5.85190178	         -7.09121777	         -5.07990407	          5.56116680	         -9.20754919	          3.45525737	          6.64128739	          0.01767507	          0.54812635	         -0.11025880	         27.77735773	          0.52733301	          3.07983965	          1.66065520	         -9.72447605	        -13.45391009	          8.94627916	          2.68693572	        -13.46697194	          9.96448406	         19.32992622	         28.20688210	         86.51662706	         86.51662706	          0.06762273	          0.07552671	          0.05113737	          0.05000053	          0.05000091	          0.05007760	          0.06946578	          0.05893716	          0.12955010	          0.05000340	          0.05000059	          0.05000040	          0.05505109	          0.09780109	          0.13798158	          0.15201936	          0.05000275	          0.05000114	          0.05805349	          0.05893676	          0.11713834	          0.16776969	          0.05000009	          0.05000014	          0.06403544	          0.05893495	          0.05000407	          0.05000047	          0.05000154	          0.05000213	          0.05000110	          0.05000016	          0.05000039	          0.05865347	          0.05865222	          0.05893489	          0.05893480	          0.47693033	          0.31117333	          0.19888126	          0.22331458	          0.48087076	          0.26770208	          0.05102345	          0.14195140	          0.14300782	          0.26396040	          0.08776454	          0.07584174	          0.25132641	          0.15292540	          0.08914636	          0.05000319	          0.05000029	          0.05000025	          0.05000027	          0.09651504	          0.05935657	          0.05000028	          0.05000049	          0.05000181	          0.05000177	          0.22295173	          0.05000094	          0.05000057	          0.05001637	          0.05000690	          0.05000356	          0.36314058	          0.65995741	          0.05000043	          0.05001208	          0.05893496	          0.31688422	          0.05681769	          0.05762356	          0.06028568	          0.19659098	          0.28703368	          0.23464192	          0.23385832	          0.21156254	          0.29244014	          0.05000003	          0.09011390	          0.14709911	          0.05000028	          0.05000007	          0.05000020	          0.05000000	          0.05000003	          0.05000003	
          0.54680504	         -2.90482673	         -0.84264696	         -5.03509021	          0.68683222	          0.87093965	          0.00196856	         25.64089632	         -0.04509291	         -3.00244371	        -17.96146660	          1.05561638	          5.62320821	         -6.96033739	         -7.11318160	          5.06436168	         -9.90820173	          2.98997607	          7.72434124	          0.01796977	          0.50768303	         -0.08869463	         28.62240300	          0.73657032	          2.91475501	          1.72192217	        -10.87667817	        -13.45002924	          8.75476467	          2.46370791	        -13.49158544	         10.22981776	         19.32400773	         29.07090218	         86.51662706	         86.51662706	          0.10955487	          0.06407700	          0.28768406	          0.05893497	          0.05893487	          0.05001690	          0.05893481	          0.05000219	          0.11873750	          0.05000029	          0.05000205	          0.09045468	          0.12217531	          0.18153852	          0.20305471	          0.18393591	          0.05000023	          0.06959338	          0.05000735	          0.05000189	          0.09937997	          0.21891588	          0.05893470	          0.05000167	          0.05432750	          0.05000068	          0.12201246	          0.06321561	          0.23255139	          0.23858130	          0.19705383	          0.05000000	          0.05000001	          0.05000000	          0.05000000	          0.05000023	          0.05000016	          0.62676552	          0.32834942	          0.16873140	          0.54706323	          0.57100858	          0.37708814	          0.05000007	          0.12043104	          0.12132731	          0.22394316	          0.07445914	          0.06434396	          0.21322455	          0.12974141	          0.07563151	          0.05000141	          0.05000016	          0.05000014	          0.05000027	          0.08188335	          0.13955194	          0.13990843	          0.05012159	          0.05000481	          0.05000044	          0.18915152	          0.12218503	          0.05892380	          0.05000150	          0.05000097	          0.05000106	          0.30808720	          0.60105760	          0.06946565	          0.05000105	          0.05000059	          0.26884343	          0.12241001	          0.15751385	          0.09078733	          0.16678707	          0.24351836	          0.21500501	          0.19840594	          0.17948987	          0.24810562	          0.05000002	          0.07645241	          0.14174976	          0.05000013	          0.05000004	          0.05000016	          0.05000020	          0.05055605	          0.05000128	
          0.55752671	         -2.88207328	         -0.88971806	         -5.16635893	          0.70384323	          0.86944406	          0.00182404	         25.12444689	          0.07921666	         -2.73586701	        -17.71404675	          0.91249751	          5.38888567	         -7.46598447	         -9.36033311	          4.36115650	        -10.61557801	          2.52322865	          8.80168523	          0.01467375	          0.44811062	         -0.05092232	         29.08798102	          0.96712951	          2.71768729	          1.77529669	        -12.03953855	        -13.45332227	          8.60400522	          2.17196125	        -13.52202997	         10.46564063	         19.31718000	         29.92244950	         86.51662706	         86.51662706	          0.16947549	          0.06322273	          0.24407252	          0.05000028	          0.05000027	          0.05000050	          0.05000013	          0.05000013	          0.10073649	          0.05000006	          0.05000024	          0.07674150	          0.10365316	          0.21351006	          0.23721364	          0.18307472	          0.05000258	          0.05904331	          0.05000072	          0.13766624	          0.15373036	          0.20598015	          0.05000010	          0.05000019	          0.17885511	          0.05878612	          0.10351502	          0.06745055	          0.21697925	          0.24134195	          0.17101040	          0.05414003	          0.05893500	          0.05000040	          0.05862343	          0.05894172	          0.05893577	          0.53174556	          0.35097288	          0.18289497	          0.46412649	          0.48444165	          0.31992022	          0.05000001	          0.10217326	          0.10293364	          0.18999261	          0.06317089	          0.05893463	          0.18089909	          0.11007218	          0.06416555	          0.05000217	          0.05000021	          0.05000036	          0.05000007	          0.06946969	          0.18197400	          0.29259167	          0.10171709	          0.05893258	          0.11020800	          0.16047552	          0.10366169	          0.05000059	          0.05014830	          0.05874316	          0.05893354	          0.26138007	          0.52509098	          0.05893470	          0.05893458	          0.05000128	          0.22808579	          0.13408453	          0.13408618	          0.13408405	          0.14150154	          0.20660009	          0.18240947	          0.16832693	          0.15227876	          0.21049204	          0.05000002	          0.06486206	          0.14797639	          0.05000009	          0.05000009	          0.05000015	          0.05371296	          0.06411837	          0.06214336	
          0.56824838	         -2.85448495	         -0.92047991	         -5.27137261	          0.72095704	          0.86784070	          0.00168894	         24.51073698	          0.18022587	         -2.44349979	        -17.35938544	          0.76571170	          5.15042547	         -8.35548889	        -11.79422245	          3.80971690	        -11.25849325	          2.01872703	          9.83845267	         -0.00585578	          0.36706889	         -0.18983342	         28.97353654	          1.20182739	          2.49129572	          1.81825570	        -13.17237724	        -13.46897379	          8.53437892	          1.84038354	        -13.55623996	         10.67490694	         19.27708844	         30.75856919	         86.51662706	         86.51662706	          0.27855053	          0.25907664	          0.39488336	          0.26346307	          0.19856860	          0.23128795	          0.06946512	          0.08629839	          0.09080848	          0.06946650	          0.05893452	          0.06510727	          0.08793901	          0.18114126	          0.20125147	          0.19176057	          0.05000035	          0.05009390	          0.05277756	          0.20412041	          0.19726196	          0.21146751	          0.05000194	          0.05000057	          0.15174008	          0.05022301	          0.20183297	          0.05722481	          0.18408445	          0.20475367	          0.14508464	          0.05000016	          0.05000039	          0.05000006	          0.05000001	          0.05000607	          0.05000105	          0.58112222	          0.29776418	          0.15516745	          0.66371266	          0.58793709	          0.35247163	          0.05000004	          0.08668342	          0.08732852	          0.18663858	          0.05359397	          0.05000003	          0.15352328	          0.09338490	          0.05443787	          0.06788669	          0.05000035	          0.05000027	          0.05000033	          0.05893835	          0.18961933	          0.29123509	          0.08629673	          0.05000508	          0.09350045	          0.13614694	          0.08794784	          0.05000118	          0.05000081	          0.05000055	          0.05000071	          0.22175392	          0.48272486	          0.05000010	          0.05000028	          0.05000009	          0.19350714	          0.11375686	          0.11375825	          0.11375645	          0.12004939	          0.17527877	          0.15475552	          0.14280800	          0.12919289	          0.17858079	          0.05002742	          0.11481424	          0.12554283	          0.06735208	          0.15293068	          0.05010352	          0.06968013	          0.05439780	          0.05272234	
